<svg xmlns="http://www.w3.org/2000/svg" viewBox="0 9.5 185.10000610351562 78.25" data-asc="0.9" width="185.10000610351562" height="78.25"><defs/><g fill="#fff700"><g transform="translate(0, 0)"><path d="M5.75 15L0 15L0 10L17 10L17 15L11.25 15L11.25 45L5.75 45L5.75 15ZM19.65 10L27.80 10Q32.05 10 34 11.98Q35.95 13.95 35.95 18.05L35.95 20.20Q35.95 25.65 32.35 27.10L32.35 27.20Q34.35 27.80 35.17 29.65Q36 31.50 36 34.60L36 40.75Q36 42.25 36.10 43.17Q36.20 44.10 36.60 45L31 45Q30.70 44.15 30.60 43.40Q30.50 42.65 30.50 40.70L30.50 34.30Q30.50 31.90 29.72 30.95Q28.95 30 27.05 30L25.15 30L25.15 45L19.65 45L19.65 10M27.15 25Q28.80 25 29.63 24.15Q30.45 23.30 30.45 21.30L30.45 18.60Q30.45 16.70 29.77 15.85Q29.10 15 27.65 15L25.15 15L25.15 25L27.15 25ZM39.80 10L54.80 10L54.80 15L45.30 15L45.30 24.25L52.85 24.25L52.85 29.25L45.30 29.25L45.30 40L54.80 40L54.80 45L39.80 45L39.80 10ZM65.95 10L71.45 10L71.45 24.75L78.45 10L83.95 10L77.40 22.85L84.05 45L78.30 45L73.65 29.40L71.45 33.85L71.45 45L65.95 45L65.95 10ZM86.65 10L94.80 10Q99.05 10 101.00 11.98Q102.95 13.95 102.95 18.05L102.95 20.20Q102.95 25.65 99.35 27.10L99.35 27.20Q101.35 27.80 102.18 29.65Q103.00 31.50 103.00 34.60L103.00 40.75Q103.00 42.25 103.10 43.17Q103.20 44.10 103.60 45L98.00 45Q97.70 44.15 97.60 43.40Q97.50 42.65 97.50 40.70L97.50 34.30Q97.50 31.90 96.73 30.95Q95.95 30 94.05 30L92.15 30L92.15 45L86.65 45L86.65 10M94.15 25Q95.80 25 96.63 24.15Q97.45 23.30 97.45 21.30L97.45 18.60Q97.45 16.70 96.78 15.85Q96.10 15 94.65 15L92.15 15L92.15 25L94.15 25ZM114.75 45.50Q110.70 45.50 108.55 43.20Q106.40 40.90 106.40 36.70L106.40 18.30Q106.40 14.10 108.55 11.80Q110.70 9.50 114.75 9.50Q118.80 9.50 120.95 11.80Q123.10 14.10 123.10 18.30L123.10 36.70Q123.10 40.90 120.95 43.20Q118.80 45.50 114.75 45.50M114.75 40.50Q117.60 40.50 117.60 37.05L117.60 17.95Q117.60 14.50 114.75 14.50Q111.90 14.50 111.90 17.95L111.90 37.05Q111.90 40.50 114.75 40.50ZM126.80 10L133.70 10L139.05 30.95L139.15 30.95L139.15 10L144.05 10L144.05 45L138.40 45L131.80 19.45L131.70 19.45L131.70 45L126.80 45L126.80 10ZM156.10 45.50Q152.05 45.50 149.90 43.20Q147.75 40.90 147.75 36.70L147.75 18.30Q147.75 14.10 149.90 11.80Q152.05 9.50 156.10 9.50Q160.15 9.50 162.30 11.80Q164.45 14.10 164.45 18.30L164.45 36.70Q164.45 40.90 162.30 43.20Q160.15 45.50 156.10 45.50M156.10 40.50Q158.95 40.50 158.95 37.05L158.95 17.95Q158.95 14.50 156.10 14.50Q153.25 14.50 153.25 17.95L153.25 37.05Q153.25 40.50 156.10 40.50ZM168.15 10L176.30 10Q180.55 10 182.50 11.98Q184.45 13.95 184.45 18.05L184.45 20.20Q184.45 25.65 180.85 27.10L180.85 27.20Q182.85 27.80 183.68 29.65Q184.50 31.50 184.50 34.60L184.50 40.75Q184.50 42.25 184.60 43.17Q184.70 44.10 185.10 45L179.50 45Q179.20 44.15 179.10 43.40Q179.00 42.65 179.00 40.70L179.00 34.30Q179.00 31.90 178.23 30.95Q177.45 30 175.55 30L173.65 30L173.65 45L168.15 45L168.15 10M175.65 25Q177.30 25 178.13 24.15Q178.95 23.30 178.95 21.30L178.95 18.60Q178.95 16.70 178.28 15.85Q177.60 15 176.15 15L173.65 15L173.65 25L175.65 25Z"/></g><g transform="translate(0, 42.25)"><path d="M5.75 15L0 15L0 10L17 10L17 15L11.25 15L11.25 45L5.75 45L5.75 15ZM19.65 10L27.80 10Q32.05 10 34 11.98Q35.95 13.95 35.95 18.05L35.95 20.20Q35.95 25.65 32.35 27.10L32.35 27.20Q34.35 27.80 35.17 29.65Q36 31.50 36 34.60L36 40.75Q36 42.25 36.10 43.17Q36.20 44.10 36.60 45L31 45Q30.70 44.15 30.60 43.40Q30.50 42.65 30.50 40.70L30.50 34.30Q30.50 31.90 29.72 30.95Q28.95 30 27.05 30L25.15 30L25.15 45L19.65 45L19.65 10M27.15 25Q28.80 25 29.63 24.15Q30.45 23.30 30.45 21.30L30.45 18.60Q30.45 16.70 29.77 15.85Q29.10 15 27.65 15L25.15 15L25.15 25L27.15 25ZM44.05 10L51.50 10L57.20 45L51.70 45L50.70 38.05L50.70 38.15L44.45 38.15L43.45 45L38.35 45L44.05 10M50.05 33.40L47.60 16.10L47.50 16.10L45.10 33.40L50.05 33.40ZM59.85 10L66.75 10L72.10 30.95L72.20 30.95L72.20 10L77.10 10L77.10 45L71.45 45L64.85 19.45L64.75 19.45L64.75 45L59.85 45L59.85 10ZM88.35 45.50Q84.35 45.50 82.30 43.23Q80.25 40.95 80.25 36.70L80.25 34.70L85.45 34.70L85.45 37.10Q85.45 40.50 88.30 40.50Q89.70 40.50 90.43 39.67Q91.15 38.85 91.15 37Q91.15 34.80 90.15 33.13Q89.15 31.45 86.45 29.10Q83.05 26.10 81.70 23.67Q80.35 21.25 80.35 18.20Q80.35 14.05 82.45 11.77Q84.55 9.50 88.55 9.50Q92.50 9.50 94.53 11.77Q96.55 14.05 96.55 18.30L96.55 19.75L91.35 19.75L91.35 17.95Q91.35 16.15 90.65 15.32Q89.95 14.50 88.60 14.50Q85.85 14.50 85.85 17.85Q85.85 19.75 86.88 21.40Q87.90 23.05 90.60 25.40Q94.05 28.40 95.35 30.85Q96.65 33.30 96.65 36.60Q96.65 40.90 94.53 43.20Q92.40 45.50 88.35 45.50ZM99.80 10L107.90 10Q112 10 114.05 12.20Q116.10 14.40 116.10 18.65L116.10 22.10Q116.10 26.35 114.05 28.55Q112 30.75 107.90 30.75L105.30 30.75L105.30 45L99.80 45L99.80 10M107.90 25.75Q109.25 25.75 109.92 25Q110.60 24.25 110.60 22.45L110.60 18.30Q110.60 16.50 109.92 15.75Q109.25 15 107.90 15L105.30 15L105.30 25.75L107.90 25.75ZM127.05 45.50Q123 45.50 120.85 43.20Q118.70 40.90 118.70 36.70L118.70 18.30Q118.70 14.10 120.85 11.80Q123 9.50 127.05 9.50Q131.10 9.50 133.25 11.80Q135.40 14.10 135.40 18.30L135.40 36.70Q135.40 40.90 133.25 43.20Q131.10 45.50 127.05 45.50M127.05 40.50Q129.90 40.50 129.90 37.05L129.90 17.95Q129.90 14.50 127.05 14.50Q124.20 14.50 124.20 17.95L124.20 37.05Q124.20 40.50 127.05 40.50ZM139.10 10L147.25 10Q151.50 10 153.45 11.98Q155.40 13.95 155.40 18.05L155.40 20.20Q155.40 25.65 151.80 27.10L151.80 27.20Q153.80 27.80 154.63 29.65Q155.45 31.50 155.45 34.60L155.45 40.75Q155.45 42.25 155.55 43.17Q155.65 44.10 156.05 45L150.45 45Q150.15 44.15 150.05 43.40Q149.95 42.65 149.95 40.70L149.95 34.30Q149.95 31.90 149.18 30.95Q148.40 30 146.50 30L144.60 30L144.60 45L139.10 45L139.10 10M146.60 25Q148.25 25 149.08 24.15Q149.90 23.30 149.90 21.30L149.90 18.60Q149.90 16.70 149.23 15.85Q148.55 15 147.10 15L144.60 15L144.60 25L146.60 25ZM163.55 15L157.80 15L157.80 10L174.80 10L174.80 15L169.05 15L169.05 45L163.55 45L163.55 15Z"/></g></g></svg>